HIERARCHY
ROOT Root
{
	OFFSET 0.00000 0.00000 0.00000
	CHANNELS 6 Xposition Yposition Zposition Zrotation Xrotation Yrotation
	JOINT Hips
	{
		OFFSET 0 0 0	
		CHANNELS 3 Zrotation Xrotation Yrotation
		JOINT Spine
		{
			OFFSET 0 4 0	
			CHANNELS 3 Zrotation Xrotation Yrotation
			JOINT Spine1
			{
				OFFSET 0 19.4 0	
				CHANNELS 3 Zrotation Xrotation Yrotation
				JOINT Spine2
				{
					OFFSET 0 16.6 0	
					CHANNELS 3 Zrotation Xrotation Yrotation
					JOINT LeftCollar
					{
						OFFSET 0 10 0	
						CHANNELS 3 Zrotation Xrotation Yrotation
						JOINT LeftArm
						{
							OFFSET 15.6 -2 3	
							CHANNELS 3 Zrotation Xrotation Yrotation
							JOINT LeftForeArm
							{
								OFFSET 3.5 -27 -1	
								CHANNELS 3 Zrotation Xrotation Yrotation
								JOINT LeftHand
								{
									OFFSET 1 -27 1	
									CHANNELS 3 Zrotation Xrotation Yrotation
									End Site
									{
										OFFSET 0 -15 0
									}
								}
							}
						}
					}
					JOINT RightCollar
					{
						OFFSET 0 10 0	
						CHANNELS 3 Zrotation Xrotation Yrotation
						JOINT RightArm
						{
							OFFSET -15.6 -2 3	
							CHANNELS 3 Zrotation Xrotation Yrotation
							JOINT RightForeArm
							{
								OFFSET -3.5 -27 -1	
								CHANNELS 3 Zrotation Xrotation Yrotation
								JOINT RightHand
								{
									OFFSET -1 -27 1	
									CHANNELS 3 Zrotation Xrotation Yrotation
									End Site
									{
										OFFSET 0 -15 0
									}
								}
							}
						}
					}
					JOINT Neck
					{
						OFFSET 0 10 0	
						CHANNELS 3 Zrotation Xrotation Yrotation
						JOINT Head
						{
							OFFSET 0 12.7 3	
							CHANNELS 3 Zrotation Xrotation Yrotation
							End Site
							{
								OFFSET 0 12.7 3
							}
						}
					}
				}
			}
		}
	}
	JOINT LeftHip
	{
		OFFSET 0 0 0	
		CHANNELS 3 Zrotation Xrotation Yrotation
		JOINT LeftUpLeg
		{
			OFFSET 8.8 -6 0	
			CHANNELS 3 Zrotation Xrotation Yrotation
			JOINT LeftLeg
			{
				OFFSET 0 -39 2	
				CHANNELS 3 Zrotation Xrotation Yrotation
				JOINT LeftFoot
				{
					OFFSET 0 -43 -2	
					CHANNELS 3 Zrotation Xrotation Yrotation
					JOINT LeftFootFront
					{
						OFFSET 0 -7 8.5	
						CHANNELS 3 Zrotation Xrotation Yrotation
						End Site
						{
							OFFSET 0 -0.5 9
						}
					}
				}
				JOINT LeftHeel
				{
					OFFSET 0 -43 -2	
					CHANNELS 3 Zrotation Xrotation Yrotation
					End Site
					{
						OFFSET 0 -7.5 -5
					}
				}
			}
		}
	}
	JOINT RightHip
	{
		OFFSET 0 0 0	
		CHANNELS 3 Zrotation Xrotation Yrotation
		JOINT RightUpLeg
		{
			OFFSET -8.8 -6 0	
			CHANNELS 3 Zrotation Xrotation Yrotation
			JOINT RightLeg
			{
				OFFSET 0 -39 2	
				CHANNELS 3 Zrotation Xrotation Yrotation
				JOINT RightFoot
				{
					OFFSET 0 -43 -2	
					CHANNELS 3 Zrotation Xrotation Yrotation
					JOINT RightFootFront
					{
						OFFSET 0 -7 8.5	
						CHANNELS 3 Zrotation Xrotation Yrotation
						End Site
						{
							OFFSET 0 -0.5 9
						}
					}
				}
				JOINT RightHeel
				{
					OFFSET 0 -43 -2	
					CHANNELS 3 Zrotation Xrotation Yrotation
					End Site
					{
						OFFSET 0 -7.5 -5
					}
				}
			}
		}
	}
}
MOTION
Frames: 17
Frame Time: 0.025
77.19 93.771 11.56 -0 0 -0 0.4434 0.41269 -45.126 -0.08454 0.11414 -3.8126 -0.08454 0.11414 -3.8126 -0.071527 0.095505 -3.2026 -0 0 -0 10.597 -13.338 -4.581 -39.39 -59.796 -76.929 6.2442 -18.058 -8.1956 -0 0 -0 -6.3686 5.2765 2.2224 -62.89 -74.216 25.868 80.667 -6.5339 -49.857 0.41469 3.7521 -23.766 0.41469 3.7521 -23.766 0.4434 0.41269 -45.126 -1.4776 -1.8722 5.5065 -3.8502 8.3707 -0.9403 -141.77 -47.671 -25.623 0.092651 -0.31569 0.064281 -0 0 -0 0.4434 0.41269 -45.126 4.1027 -12.769 5.1958 -5.888 24.87 -5.3557 -4.2039 -11.451 -17.887 -0.02446 -0.0092696 0.25867 -0 0 -0 
77.114 93.738 11.67 -0 0 -0 0.41071 0.16558 -47.782 -0.25262 0.044554 -3.8533 -0.25262 0.044554 -3.8533 -0.21241 0.036285 -3.2368 -0 0 -0 10.402 -12.736 -3.7216 -38.682 -60.285 -76.065 6.4082 -18.17 -8.1839 -0 0 -0 -7.7678 1.8164 4.3383 -62 -73.506 26.076 83.845 -6.5537 -48.463 0.43419 4.1605 -25.003 0.4342 4.1605 -25.003 0.41071 0.16558 -47.782 -1.6868 -1.1221 6.7268 -3.5793 7.8734 -0.26159 -144.51 -46.555 -26.313 -0.096789 -0.27333 0.26722 -0 0 -0 0.41071 0.16558 -47.782 3.989 -13.361 6.1656 -4.7515 24.822 -6.5131 -5.1253 -11.611 -20.239 -0.063229 0.032934 0.24737 -0 0 -0 
76.97 93.672 11.793 -0 0 -0 0.31153 -0.018815 -50.752 -0.29017 0.0023653 -3.7571 -0.29017 0.0023653 -3.7571 -0.24376 0.00070815 -3.156 -0 0 -0 10.203 -12.114 -3.1977 -37.416 -61.103 -74.675 6.5998 -18.382 -7.8665 -0 0 -0 -9.0482 -1.9513 6.4647 -60.669 -72.532 26.506 86.823 -6.1541 -47.116 0.32724 4.3044 -25.316 0.32725 4.3044 -25.316 0.31153 -0.018815 -50.752 -1.8342 -0.25756 8.2804 -3.3048 7.3541 0.24041 -146.97 -44.996 -27.257 -0.1608 -0.17107 0.30748 -0 0 -0 0.31153 -0.018815 -50.752 4.1723 -14.085 6.8852 -3.7631 24.441 -8.2536 -5.9793 -11.502 -21.758 -0.064395 -0.020722 0.14842 -0 0 -0 
76.744 93.572 11.921 -0 0 -0 0.14507 -0.072146 -53.855 -0.21657 -0.075574 -3.5442 -0.21657 -0.075574 -3.5442 -0.18161 -0.064384 -2.9771 -0 0 -0 10.052 -11.375 -3.0463 -35.941 -62.093 -73.071 6.9079 -18.586 -7.2888 -0 0 -0 -9.978 -5.534 8.4705 -59.322 -71.471 27.028 89.465 -5.4905 -45.906 0.10361 4.3346 -25.199 0.10361 4.3346 -25.199 0.14507 -0.072146 -53.855 -1.8929 0.60197 9.8351 -3.0525 6.9018 0.96223 -148.93 -42.965 -28.297 0.002088 -0.11404 0.221 -0 0 -0 0.14507 -0.072146 -53.855 4.6831 -14.9 7.0589 -2.9973 23.894 -9.9799 -6.7635 -11.3 -22.789 -0.075628 -0.13793 0.029906 -0 0 -0 
76.422 93.435 12.047 -0 0 -0 -0.083296 0.024141 -57.008 -0.069448 -0.16935 -3.214 -0.069448 -0.16935 -3.2141 -0.057699 -0.14252 -2.6998 -0 0 -0 9.9744 -10.687 -3.2116 -34.601 -63.014 -71.426 7.3386 -18.695 -6.6346 -0 0 -0 -10.42 -8.7017 10.21 -58.017 -70.541 27.781 91.651 -4.7164 -44.908 -0.14512 4.3369 -25.075 -0.14512 4.3369 -25.075 -0.083296 0.024141 -57.008 -1.8412 1.4017 11.28 -2.8632 6.6106 1.9286 -150.59 -40.539 -29.566 0.1704 -0.066391 0.13543 -0 0 -0 -0.083296 0.024141 -57.008 5.4818 -15.717 6.5663 -2.4337 23.306 -11.174 -7.4788 -11.063 -23.628 -0.10246 -0.19742 -0.081785 -0 0 -0 
75.992 93.265 12.158 -0 0 -0 -0.35871 0.15934 -60.155 0.060463 -0.20086 -2.7706 0.060463 -0.20086 -2.7706 0.051443 -0.16853 -2.3273 -0 0 -0 10.041 -10.32 -3.5968 -33.505 -63.712 -69.798 7.784 -18.7 -6.0304 -0 0 -0 -10.301 -11.391 11.608 -56.73 -69.797 28.929 93.249 -4.0125 -44.098 -0.32225 4.2744 -25.086 -0.32225 4.2744 -25.086 -0.35871 0.15934 -60.155 -1.7744 2.2094 12.63 -2.7341 6.5415 2.9492 -152.21 -37.827 -31.205 0.078891 0.032225 0.087512 -0 0 -0 -0.35871 0.15934 -60.155 6.4683 -16.336 5.2949 -2.1334 22.667 -11.743 -8.0339 -10.793 -24.015 -0.10865 -0.19025 -0.26873 -0 0 -0 
75.441 93.067 12.246 -0 0 -0 -0.62044 0.21639 -63.147 0.081612 -0.14793 -2.2888 0.081612 -0.14793 -2.2888 0.068953 -0.12404 -1.9226 -0 0 -0 10.285 -10.369 -4.0726 -32.49 -64.196 -68.196 8.1275 -18.647 -5.4682 -0 0 -0 -9.741 -13.521 12.753 -55.386 -69.216 30.402 94.131 -3.4245 -43.466 -0.38638 4.1127 -25.159 -0.38638 4.1127 -25.159 -0.62044 0.21639 -63.147 -1.7957 3.0169 13.813 -2.6742 6.7756 4.0156 -153.78 -34.9 -33.048 -0.14335 0.13718 0.049117 -0 0 -0 -0.62044 0.21639 -63.147 7.4955 -16.656 3.2116 -2.1259 21.929 -11.954 -8.4605 -10.388 -23.285 0.079524 -0.21638 -0.69647 -0 0 -0 
74.761 92.851 12.3 -0 0 -0 -0.78423 0.19965 -65.814 -0.030359 -0.10382 -1.8831 -0.030359 -0.10382 -1.8831 -0.025272 -0.087275 -1.5818 -0 0 -0 10.642 -10.611 -4.5107 -31.314 -64.561 -66.661 8.3478 -18.609 -4.8797 -0 0 -0 -8.9983 -14.874 13.832 -54.236 -68.737 31.727 94.299 -2.943 -42.936 -0.34423 3.9586 -25.187 -0.34423 3.9586 -25.187 -0.78423 0.19965 -65.814 -1.8542 3.7026 14.749 -2.7356 7.4098 5.165 -155.14 -31.903 -34.81 -0.25459 0.19851 0.0034561 -0 0 -0 -0.78423 0.19965 -65.814 8.4897 -16.806 0.57775 -2.287 21.12 -12.173 -9.0059 -9.8344 -21.015 0.31947 -0.12317 -1.063 -0 0 -0 
73.946 92.63 12.318 -0 0 -0 -0.82425 0.13651 -68.122 -0.24477 -0.13165 -1.6065 -0.24477 -0.13165 -1.6064 -0.20536 -0.11105 -1.3494 -0 0 -0 11.02 -10.826 -4.842 -29.952 -64.882 -65.256 8.5141 -18.616 -4.2844 -0 0 -0 -8.2945 -15.395 14.85 -53.744 -68.319 32.526 93.925 -2.6576 -42.28 -0.23111 3.9 -25.133 -0.23111 3.9 -25.133 -0.82425 0.13651 -68.122 -1.8387 4.2282 15.508 -2.9608 8.4738 6.2456 -156.26 -29.111 -36.337 -0.26405 0.24585 -0.11465 -0 0 -0 -0.82425 0.13651 -68.122 9.4538 -16.908 -2.1259 -2.4534 20.366 -12.591 -9.8036 -9.3646 -17.496 0.1363 0.12428 -0.71487 -0 0 -0 
72.997 92.416 12.301 -0 0 -0 -0.80238 -0.0089377 -70.165 -0.51389 -0.18247 -1.4479 -0.51389 -0.18247 -1.4479 -0.43136 -0.15414 -1.2161 -0 0 -0 11.368 -11.001 -5.0126 -28.589 -65.207 -63.997 8.6852 -18.66 -3.7771 -0 0 -0 -7.8037 -15.385 15.656 -53.868 -68.008 33.02 93.177 -2.6318 -41.337 -0.11071 3.8832 -24.969 -0.11071 3.8832 -24.969 -0.80238 -0.0089377 -70.165 -1.7068 4.6835 16.235 -3.3556 9.9154 7.1035 -157.24 -26.767 -37.464 -0.26796 0.29347 -0.33173 -0 0 -0 -0.80238 -0.0089377 -70.165 10.352 -16.874 -4.5656 -2.5755 19.742 -13.038 -10.904 -8.9931 -13.277 -0.027813 0.020052 -0.24593 -0 0 -0 
71.916 92.223 12.254 -0 0 -0 -0.78643 -0.29123 -72.027 -0.80935 -0.20563 -1.3812 -0.80935 -0.20563 -1.3813 -0.67953 -0.17404 -1.1601 -0 0 -0 11.691 -11.142 -5.0074 -27.395 -65.579 -62.834 8.8635 -18.723 -3.4441 -0 0 -0 -7.6229 -15.217 16.098 -54.034 -67.88 33.665 92.206 -2.5944 -40.146 -0.036845 3.8409 -24.667 -0.036845 3.8409 -24.667 -0.78643 -0.29123 -72.027 -1.5114 5.217 17.018 -3.9042 11.603 7.7135 -158.14 -24.961 -37.969 -0.2525 0.27997 -0.47073 -0 0 -0 -0.78643 -0.29123 -72.027 11.096 -16.512 -6.5421 -2.7582 19.259 -13.135 -12.048 -8.7829 -9.3171 0.052823 -0.17826 -0.097268 -0 0 -0 
70.711 92.06 12.188 -0 0 -0 -0.80166 -0.68596 -73.771 -1.1281 -0.19951 -1.3591 -1.1281 -0.19951 -1.3591 -0.94725 -0.16939 -1.1414 -0 0 -0 12.053 -11.209 -4.8868 -26.354 -66.016 -61.719 9.037 -18.799 -3.273 -0 0 -0 -7.7227 -15.138 16.047 -53.714 -67.924 34.657 91.173 -1.9728 -38.748 0.01518 3.782 -24.274 0.015181 3.782 -24.274 -0.80166 -0.68596 -73.771 -1.281 5.8241 17.781 -4.6009 13.546 8.1889 -159.04 -23.611 -37.814 -0.17565 0.19969 -0.36023 -0 0 -0 -0.80166 -0.68596 -73.771 11.585 -15.657 -7.5244 -3.029 18.986 -12.784 -12.782 -8.6859 -6.6908 0.069597 -0.08518 -0.012863 -0 0 -0 
69.398 91.931 12.11 -0 0 -0 -0.86868 -1.0947 -75.472 -1.4598 -0.18014 -1.3244 -1.4597 -0.18014 -1.3244 -1.2259 -0.15358 -1.1122 -0 0 -0 12.505 -11.151 -4.6833 -25.358 -66.511 -60.708 9.2021 -18.914 -3.1353 -0 0 -0 -7.9919 -15.221 15.511 -52.747 -68.036 35.931 90.297 -0.19211 -37.16 0.10274 3.7421 -23.872 0.10274 3.7421 -23.872 -0.86868 -1.0947 -75.472 -0.89109 6.2518 18.279 -5.5534 16.059 8.7852 -159.9 -22.47 -37.251 -0.10441 0.060093 -0.10193 -0 0 -0 -0.86868 -1.0947 -75.472 11.68 -14.294 -6.79 -3.0205 19.005 -12.447 -13.023 -8.6365 -5.8787 -0.01687 0.16197 0.072322 -0 0 -0 
67.998 91.835 12.027 -0 0 -0 -1.0096 -1.404 -77.207 -1.7535 -0.17736 -1.2448 -1.7535 -0.17736 -1.2448 -1.4727 -0.15154 -1.0453 -0 0 -0 12.992 -10.863 -4.323 -24.446 -67.04 -59.942 9.3407 -19.093 -2.9492 -0 0 -0 -8.3099 -15.359 14.691 -51.27 -68.142 37.239 90.008 3.2749 -35.556 0.19312 3.7408 -23.481 0.19312 3.7408 -23.481 -1.0096 -1.404 -77.207 -0.16695 6.2284 18.318 -7.0018 19.43 9.8158 -160.54 -21.164 -36.646 -0.07033 -0.1678 0.11005 -0 0 -0 -1.0096 -1.404 -77.207 11.501 -12.703 -4.7723 -2.5217 19.299 -11.91 -13.172 -8.672 -6.7287 -0.062838 0.23566 0.093557 -0 0 -0 
66.537 91.766 11.943 -0 0 -0 -1.2172 -1.558 -79.006 -1.9638 -0.22648 -1.1215 -1.9638 -0.22648 -1.1215 -1.6493 -0.19283 -0.94157 -0 0 -0 13.4 -10.233 -3.6912 -23.88 -67.546 -59.573 9.4307 -19.315 -2.8052 -0 0 -0 -8.5621 -15.364 13.854 -49.571 -68.224 38.25 90.814 8.6587 -34.398 0.20824 3.788 -23.063 0.20824 3.788 -23.063 -1.2172 -1.558 -79.006 0.96386 5.643 17.94 -9.1868 23.638 11.383 -160.66 -19.443 -36.324 -0.088734 -0.38416 0.19291 -0 0 -0 -1.2172 -1.558 -79.006 11.517 -11.064 -3.07 -2.0969 19.609 -9.9169 -13.596 -8.8482 -8.8213 -0.061082 -0.45263 0.072184 -0 0 -0 
65.045 91.716 11.856 -0 0 -0 -1.4614 -1.5552 -80.776 -2.0771 -0.31151 -0.9901 -2.0771 -0.31151 -0.99008 -1.7444 -0.26408 -0.83093 -0 0 -0 13.626 -9.3058 -2.7651 -23.805 -67.991 -59.607 9.467 -19.54 -2.815 -0 0 -0 -8.6734 -15.204 13.164 -47.946 -68.226 38.794 93.026 15.546 -34.579 0.1435 3.8607 -22.615 0.1435 3.8607 -22.615 -1.4614 -1.5552 -80.776 2.4327 4.5794 17.416 -11.956 28.364 12.78 -160.28 -17.479 -36.874 -0.15799 -0.4171 0.21938 -0 0 -0 -1.4614 -1.5552 -80.776 11.907 -9.2712 -2.6925 -2.2554 19.512 -6.5713 -14.173 -9.155 -11.003 -0.067782 -0.77626 0.043471 -0 0 -0 
63.551 91.676 11.764 -0 0 -0 -1.701 -1.3726 -82.377 -2.0533 -0.3663 -0.89395 -2.0533 -0.3663 -0.89396 -1.7244 -0.30985 -0.75004 -0 0 -0 13.542 -8.2817 -1.6394 -23.926 -68.395 -59.718 9.4937 -19.767 -2.9471 -0 0 -0 -8.7329 -15.063 12.669 -46.442 -68.063 38.999 96.449 22.617 -37.339 0.010709 3.8735 -22.183 0.010709 3.8735 -22.183 -1.701 -1.3726 -82.377 3.9872 3.2159 17.194 -14.426 33.141 12.399 -159.74 -15.94 -39.157 -0.204 -0.2726 0.29379 -0 0 -0 -1.701 -1.3726 -82.377 12.512 -7.2496 -3.0889 -2.6925 18.79 -4.0712 -14.536 -9.7008 -11.757 -0.063818 -0.92056 0.025048 -0 0 -0 
